# xmcd
# 
# Track frame offsets:
#     150
#     39160
#     97656
#     141275
#     184225
#     229082
#     281664
# 
# Disc length: 4429
# 
# Revision: 0
# Processed by: cddbd v1.5.2PL0 Copyright (c) Steve Scherf et al.
# Submitted via: fre:ac v1.0.17
# 
DISCID=56114b07
DTITLE=Sara Gruen - Wasser für die Elefanten
DYEAR=0
DGENRE=
TTITLE0=08 - Wasser für die Elefanten
TTITLE1=09 - Wasser für die Elefanten
TTITLE2=10 - Wasser für die Elefanten
TTITLE3=11 - Wasser für die Elefanten
TTITLE4=12 - Wasser für die Elefanten
TTITLE5=13 - Wasser für die Elefanten
TTITLE6=14 - Wasser für die Elefanten
EXTD=
EXTT0=
EXTT1=
EXTT2=
EXTT3=
EXTT4=
EXTT5=
EXTT6=
PLAYORDER=
